<svg width="400" height="400" viewBox="0 0 400 400" fill="none" xmlns="http://www.w3.org/2000/svg">
<circle cx="45" cy="74" r="4" fill="#D9D9D9"/>
<circle cx="45" cy="102" r="4" fill="#D9D9D9"/>
<circle cx="45" cy="130" r="4" fill="#D9D9D9"/>
<circle cx="45" cy="158" r="4" fill="#D9D9D9"/>
<circle cx="45" cy="186" r="4" fill="#D9D9D9"/>
<circle cx="45" cy="214" r="4" fill="#D9D9D9"/>
<circle cx="45" cy="242" r="4" fill="#D9D9D9"/>
<circle cx="45" cy="270" r="4" fill="#D9D9D9"/>
<circle cx="45" cy="298" r="4" fill="#D9D9D9"/>
<circle cx="45" cy="326" r="4" fill="#D9D9D9"/>
<circle cx="73" cy="46" r="4" fill="#D9D9D9"/>
<circle cx="73" cy="74" r="4" fill="#D9D9D9"/>
<circle cx="73" cy="102" r="4" fill="#D9D9D9"/>
<circle cx="73" cy="130" r="4" fill="#D9D9D9"/>
<circle cx="73" cy="158" r="4" fill="#D9D9D9"/>
<circle cx="73" cy="186" r="4" fill="#D9D9D9"/>
<circle cx="73" cy="214" r="4" fill="#D9D9D9"/>
<circle cx="73" cy="242" r="4" fill="#D9D9D9"/>
<circle cx="73" cy="270" r="4" fill="#D9D9D9"/>
<circle cx="73" cy="298" r="4" fill="#D9D9D9"/>
<circle cx="73" cy="326" r="4" fill="#D9D9D9"/>
<circle cx="73" cy="354" r="4" fill="#D9D9D9"/>
<circle cx="101" cy="46" r="4" fill="#D9D9D9"/>
<circle cx="101" cy="74" r="4" fill="#D9D9D9"/>
<circle cx="101" cy="102" r="4" fill="#D9D9D9"/>
<circle cx="101" cy="130" r="4" fill="#D9D9D9"/>
<circle cx="101" cy="158" r="4" fill="#D9D9D9"/>
<circle cx="101" cy="186" r="4" fill="#D9D9D9"/>
<circle cx="101" cy="214" r="4" fill="#D9D9D9"/>
<circle cx="101" cy="242" r="4" fill="#D9D9D9"/>
<circle cx="101" cy="270" r="4" fill="#D9D9D9"/>
<circle cx="101" cy="298" r="4" fill="#D9D9D9"/>
<circle cx="101" cy="326" r="4" fill="#D9D9D9"/>
<circle cx="101" cy="354" r="4" fill="#D9D9D9"/>
<circle cx="129" cy="46" r="4" fill="#D9D9D9"/>
<circle cx="129" cy="74" r="4" fill="#D9D9D9"/>
<circle cx="129" cy="102" r="4" fill="#D9D9D9"/>
<circle cx="129" cy="130" r="4" fill="#D9D9D9"/>
<circle cx="129" cy="158" r="4" fill="#D9D9D9"/>
<circle cx="129" cy="186" r="4" fill="#D9D9D9"/>
<circle cx="129" cy="214" r="4" fill="#D9D9D9"/>
<circle cx="129" cy="242" r="4" fill="#D9D9D9"/>
<circle cx="129" cy="270" r="4" fill="#D9D9D9"/>
<circle cx="129" cy="298" r="4" fill="#D9D9D9"/>
<circle cx="129" cy="326" r="4" fill="#D9D9D9"/>
<circle cx="129" cy="354" r="4" fill="#D9D9D9"/>
<circle cx="157" cy="46" r="4" fill="#D9D9D9"/>
<circle cx="157" cy="74" r="4" fill="#D9D9D9"/>
<circle cx="157" cy="102" r="4" fill="#D9D9D9"/>
<circle cx="157" cy="130" r="4" fill="#D9D9D9"/>
<circle cx="157" cy="158" r="4" fill="#D9D9D9"/>
<circle cx="157" cy="186" r="4" fill="#D9D9D9"/>
<circle cx="157" cy="214" r="4" fill="#D9D9D9"/>
<circle cx="157" cy="242" r="4" fill="#D9D9D9"/>
<circle cx="157" cy="270" r="4" fill="#D9D9D9"/>
<circle cx="157" cy="298" r="4" fill="#D9D9D9"/>
<circle cx="157" cy="326" r="4" fill="#D9D9D9"/>
<circle cx="157" cy="354" r="4" fill="#D9D9D9"/>
<circle cx="185" cy="46" r="4" fill="#D9D9D9"/>
<circle cx="185" cy="74" r="4" fill="#D9D9D9"/>
<circle cx="185" cy="102" r="4" fill="#D9D9D9"/>
<circle cx="185" cy="130" r="4" fill="#D9D9D9"/>
<circle cx="185" cy="158" r="4" fill="#D9D9D9"/>
<circle cx="185" cy="186" r="4" fill="#D9D9D9"/>
<circle cx="185" cy="214" r="4" fill="#D9D9D9"/>
<circle cx="185" cy="242" r="4" fill="#D9D9D9"/>
<circle cx="185" cy="270" r="4" fill="#D9D9D9"/>
<circle cx="185" cy="298" r="4" fill="#D9D9D9"/>
<circle cx="185" cy="326" r="4" fill="#D9D9D9"/>
<circle cx="185" cy="354" r="4" fill="#D9D9D9"/>
<circle cx="213" cy="46" r="4" fill="#D9D9D9"/>
<circle cx="213" cy="74" r="4" fill="#D9D9D9"/>
<circle cx="213" cy="102" r="4" fill="#D9D9D9"/>
<circle cx="213" cy="130" r="4" fill="#D9D9D9"/>
<circle cx="213" cy="158" r="4" fill="#D9D9D9"/>
<circle cx="213" cy="186" r="4" fill="#D9D9D9"/>
<circle cx="213" cy="214" r="4" fill="#D9D9D9"/>
<circle cx="213" cy="242" r="4" fill="#D9D9D9"/>
<circle cx="213" cy="270" r="4" fill="#D9D9D9"/>
<circle cx="213" cy="298" r="4" fill="#D9D9D9"/>
<circle cx="213" cy="326" r="4" fill="#D9D9D9"/>
<circle cx="213" cy="354" r="4" fill="#D9D9D9"/>
<circle cx="241" cy="46" r="4" fill="#D9D9D9"/>
<circle cx="241" cy="74" r="4" fill="#D9D9D9"/>
<circle cx="241" cy="102" r="4" fill="#D9D9D9"/>
<circle cx="241" cy="130" r="4" fill="#D9D9D9"/>
<circle cx="241" cy="158" r="4" fill="#D9D9D9"/>
<circle cx="241" cy="186" r="4" fill="#D9D9D9"/>
<circle cx="241" cy="214" r="4" fill="#D9D9D9"/>
<circle cx="241" cy="242" r="4" fill="#D9D9D9"/>
<circle cx="241" cy="270" r="4" fill="#D9D9D9"/>
<circle cx="241" cy="298" r="4" fill="#D9D9D9"/>
<circle cx="241" cy="326" r="4" fill="#D9D9D9"/>
<circle cx="241" cy="354" r="4" fill="#D9D9D9"/>
<circle cx="269" cy="46" r="4" fill="#D9D9D9"/>
<circle cx="269" cy="74" r="4" fill="#D9D9D9"/>
<circle cx="269" cy="102" r="4" fill="#D9D9D9"/>
<circle cx="269" cy="130" r="4" fill="#D9D9D9"/>
<circle cx="269" cy="158" r="4" fill="#D9D9D9"/>
<circle cx="269" cy="186" r="4" fill="#D9D9D9"/>
<circle cx="269" cy="214" r="4" fill="#D9D9D9"/>
<circle cx="269" cy="242" r="4" fill="#D9D9D9"/>
<circle cx="269" cy="270" r="4" fill="#D9D9D9"/>
<circle cx="269" cy="298" r="4" fill="#D9D9D9"/>
<circle cx="269" cy="326" r="4" fill="#D9D9D9"/>
<circle cx="269" cy="354" r="4" fill="#D9D9D9"/>
<circle cx="297" cy="46" r="4" fill="#D9D9D9"/>
<circle cx="297" cy="74" r="4" fill="#D9D9D9"/>
<circle cx="297" cy="102" r="4" fill="#D9D9D9"/>
<circle cx="297" cy="130" r="4" fill="#D9D9D9"/>
<circle cx="297" cy="158" r="4" fill="#D9D9D9"/>
<circle cx="297" cy="186" r="4" fill="#D9D9D9"/>
<circle cx="297" cy="214" r="4" fill="#D9D9D9"/>
<circle cx="297" cy="242" r="4" fill="#D9D9D9"/>
<circle cx="297" cy="270" r="4" fill="#D9D9D9"/>
<circle cx="297" cy="298" r="4" fill="#D9D9D9"/>
<circle cx="297" cy="326" r="4" fill="#D9D9D9"/>
<circle cx="297" cy="354" r="4" fill="#D9D9D9"/>
<circle cx="325" cy="46" r="4" fill="#D9D9D9"/>
<circle cx="325" cy="74" r="4" fill="#D9D9D9"/>
<circle cx="325" cy="102" r="4" fill="#D9D9D9"/>
<circle cx="325" cy="130" r="4" fill="#D9D9D9"/>
<circle cx="325" cy="158" r="4" fill="#D9D9D9"/>
<circle cx="325" cy="186" r="4" fill="#D9D9D9"/>
<circle cx="325" cy="214" r="4" fill="#D9D9D9"/>
<circle cx="325" cy="242" r="4" fill="#D9D9D9"/>
<circle cx="325" cy="270" r="4" fill="#D9D9D9"/>
<circle cx="325" cy="298" r="4" fill="#D9D9D9"/>
<circle cx="325" cy="326" r="4" fill="#D9D9D9"/>
<circle cx="325" cy="354" r="4" fill="#D9D9D9"/>
<circle cx="353" cy="74" r="4" fill="#D9D9D9"/>
<circle cx="353" cy="102" r="4" fill="#D9D9D9"/>
<circle cx="353" cy="130" r="4" fill="#D9D9D9"/>
<circle cx="353" cy="158" r="4" fill="#D9D9D9"/>
<circle cx="353" cy="186" r="4" fill="#D9D9D9"/>
<circle cx="353" cy="214" r="4" fill="#D9D9D9"/>
<circle cx="353" cy="242" r="4" fill="#D9D9D9"/>
<circle cx="353" cy="270" r="4" fill="#D9D9D9"/>
<circle cx="353" cy="298" r="4" fill="#D9D9D9"/>
<circle cx="353" cy="326" r="4" fill="#D9D9D9"/>
</svg>
